<svg width="25" height="25" viewBox="0 0 25 25" fill="none" xmlns="http://www.w3.org/2000/svg">
<g clip-path="url(#clip0_1_295)">
<path opacity="0.16" d="M7.56768 11.829C8.01668 10.155 9.73768 8.43503 11.4107 7.98603L21.8447 5.19003C23.5177 4.74203 24.5107 5.73503 24.0627 7.40803L21.2657 17.842C20.8167 19.516 19.0957 21.236 17.4227 21.685L6.98968 24.481C5.31668 24.929 4.32368 23.936 4.77168 22.263L7.56768 11.829Z" fill="#6366F1"/>
<path d="M3.38568 7.64593C3.83368 5.97193 5.55368 4.25193 7.22768 3.80293L17.6617 1.00693C19.3347 0.558925 20.3287 1.55193 19.8797 3.22493L17.0837 13.6589C16.6347 15.3329 14.9147 17.0529 13.2407 17.5019L2.80668 20.2979C1.13368 20.7459 0.140682 19.7529 0.588682 18.0799L3.38568 7.64593Z" fill="#6366F1"/>
</g>
<defs>
<clipPath id="clip0_1_295">
<rect width="24" height="24" fill="white" transform="translate(0.325684 0.745972)"/>
</clipPath>
</defs>
</svg>
