<svg width="44" height="33" viewBox="0 0 44 33" fill="none" xmlns="http://www.w3.org/2000/svg">
<g clip-path="url(#clip0_1_250)">
<path d="M23.3175 0.492865L32.5469 5.55759C32.7601 5.67456 32.9375 5.84486 33.061 6.0509C33.1845 6.25701 33.2496 6.49142 33.2496 6.73019C33.2496 6.96895 33.1845 7.20336 33.061 7.40948C32.9375 7.61552 32.7601 7.78581 32.5469 7.90278L23.3176 12.9677C22.7286 13.291 22.0643 13.4608 21.3887 13.4608C20.713 13.4608 20.0487 13.291 19.4598 12.9677L10.2304 7.90278C10.0173 7.78581 9.83981 7.61552 9.71631 7.40948C9.59282 7.20336 9.52771 6.96895 9.52771 6.73019C9.52771 6.49142 9.59282 6.25701 9.71631 6.0509C9.83981 5.84486 10.0173 5.67456 10.2304 5.55759L19.4598 0.492865C20.0487 0.169623 20.713 -0.00012207 21.3887 -0.00012207C22.0643 -0.00012207 22.7286 0.169623 23.3175 0.492865Z" fill="#6366F1"/>
<path opacity="0.7" d="M23.2677 5.24779L36.4855 12.5013C36.6986 12.6183 36.8761 12.7886 36.9996 12.9946C37.1231 13.2008 37.1882 13.4352 37.1882 13.6739C37.1882 13.9127 37.1231 14.1472 36.9996 14.3532C36.8761 14.5593 36.6986 14.7296 36.4855 14.8466L23.2677 22.1C22.6787 22.4232 22.0145 22.593 21.3388 22.593C20.6632 22.593 19.9989 22.4232 19.41 22.1L6.19219 14.8466C5.97904 14.7296 5.80159 14.5593 5.67809 14.3532C5.55459 14.1472 5.4895 13.9127 5.4895 13.6739C5.4895 13.4352 5.55459 13.2008 5.67809 12.9946C5.80159 12.7886 5.97904 12.6183 6.19219 12.5013L19.41 5.24779C19.9989 4.92463 20.6632 4.75488 21.3388 4.75488C22.0145 4.75488 22.6787 4.92463 23.2677 5.24779Z" fill="#6366F1"/>
<path opacity="0.4" d="M23.569 10.0018L41.9417 20.0843C42.1545 20.2012 42.3317 20.3711 42.455 20.5769C42.5783 20.7826 42.6433 21.0167 42.6433 21.2551C42.6433 21.4935 42.5783 21.7275 42.455 21.9333C42.3317 22.139 42.1545 22.309 41.9417 22.4258L23.5689 32.5081C22.9809 32.8307 22.3178 33.0002 21.6432 33.0002C20.9687 33.0002 20.3055 32.8307 19.7175 32.5081L1.34479 22.4258C1.13199 22.309 0.954831 22.139 0.831536 21.9333C0.708245 21.7275 0.64325 21.4935 0.64325 21.2551C0.64325 21.0167 0.708245 20.7826 0.831536 20.5769C0.954831 20.3711 1.13199 20.2012 1.34479 20.0843L19.7175 10.0018C20.3055 9.67919 20.9687 9.50964 21.6432 9.50964C22.3178 9.50964 22.9809 9.67919 23.569 10.0018Z" fill="#6366F1"/>
</g>
<defs>
<clipPath id="clip0_1_250">
<rect width="43" height="33" fill="white" transform="translate(0.309998)"/>
</clipPath>
</defs>
</svg>
