<svg width="24" height="33" viewBox="0 0 24 33" fill="none" xmlns="http://www.w3.org/2000/svg">
<path d="M13.7898 0.492987L23.0191 5.55772C23.2324 5.67469 23.4097 5.84499 23.5332 6.05103C23.6567 6.25714 23.7218 6.49155 23.7218 6.73032C23.7218 6.96908 23.6567 7.20349 23.5332 7.40961C23.4097 7.61565 23.2324 7.78595 23.0191 7.90291L13.7899 12.9679C13.2008 13.2911 12.5366 13.4609 11.861 13.4609C11.1852 13.4609 10.521 13.2911 9.93203 12.9679L0.702692 7.90291C0.489542 7.78595 0.312094 7.61565 0.188597 7.40961C0.0651016 7.20349 0 6.96908 0 6.73032C0 6.49155 0.0651016 6.25714 0.188597 6.05103C0.312094 5.84499 0.489542 5.67469 0.702692 5.55772L9.93203 0.492987C10.521 0.169745 11.1852 0 11.861 0C12.5366 0 13.2008 0.169745 13.7898 0.492987Z" fill="#6366F1"/>
</svg>
