<svg width="34" height="33" viewBox="0 0 34 33" fill="none" xmlns="http://www.w3.org/2000/svg">
<g clip-path="url(#clip0_1_212)">
<path d="M19.1546 0.492987L28.3839 5.55772C28.5972 5.67469 28.7745 5.84499 28.898 6.05103C29.0215 6.25714 29.0866 6.49155 29.0866 6.73032C29.0866 6.96908 29.0215 7.20349 28.898 7.40961C28.7745 7.61565 28.5972 7.78595 28.3839 7.90291L19.1547 12.9679C18.5656 13.2911 17.9014 13.4609 17.2258 13.4609C16.55 13.4609 15.8858 13.2911 15.2968 12.9679L6.06751 7.90291C5.85436 7.78595 5.67691 7.61565 5.55341 7.40961C5.42992 7.20349 5.36481 6.96908 5.36481 6.73032C5.36481 6.49155 5.42992 6.25714 5.55341 6.05103C5.67691 5.84499 5.85436 5.67469 6.06751 5.55772L15.2968 0.492987C15.8858 0.169745 16.55 0 17.2258 0C17.9014 0 18.5656 0.169745 19.1546 0.492987Z" fill="#6366F1"/>
<path opacity="0.7" d="M19.1048 5.24779L32.3226 12.5013C32.5358 12.6183 32.7132 12.7886 32.8367 12.9946C32.9602 13.2007 33.0253 13.4351 33.0253 13.6739C33.0253 13.9127 32.9602 14.1471 32.8367 14.3532C32.7132 14.5593 32.5358 14.7295 32.3226 14.8466L19.1048 22.1C18.5158 22.4231 17.8516 22.593 17.176 22.593C16.5003 22.593 15.8361 22.4231 15.2471 22.1L2.02929 14.8466C1.81614 14.7295 1.63869 14.5593 1.51519 14.3532C1.3917 14.1471 1.3266 13.9127 1.3266 13.6739C1.3266 13.4351 1.3917 13.2007 1.51519 12.9946C1.63869 12.7886 1.81614 12.6183 2.02929 12.5013L15.2471 5.24779C15.8361 4.92463 16.5003 4.75488 17.176 4.75488C17.8516 4.75488 18.5158 4.92463 19.1048 5.24779Z" fill="#6366F1"/>
</g>
<defs>
<clipPath id="clip0_1_212">
<rect width="33" height="33" fill="white" transform="translate(0.660004)"/>
</clipPath>
</defs>
</svg>
